<svg width="22" height="22" viewBox="0 0 22 22" fill="none" xmlns="http://www.w3.org/2000/svg">

	<!-- social -->

	<path id="whatsup" fill-rule="evenodd" clip-rule="evenodd"
		d="M15.7559 13.155C15.4863 13.0202 14.1645 12.3706 13.9184 12.2801C13.6723 12.1905 13.4932 12.1462 13.3132 12.4158C13.134 12.6836 12.6192 13.2898 12.4627 13.4689C12.3053 13.649 12.1488 13.6707 11.8801 13.5368C11.6113 13.4011 10.7446 13.1179 9.71774 12.2023C8.91886 11.4894 8.37874 10.6091 8.22222 10.3394C8.0657 10.0707 8.20503 9.92508 8.33983 9.79118C8.46107 9.67085 8.60854 9.47724 8.74334 9.32072C8.87815 9.16329 8.92248 9.05111 9.01205 8.87107C9.10252 8.69193 9.05729 8.53541 8.98943 8.40061C8.92248 8.2658 8.38507 6.94217 8.1607 6.40386C7.94265 5.88002 7.72099 5.95149 7.55633 5.94244C7.39891 5.93521 7.21977 5.9334 7.04064 5.9334C6.8615 5.9334 6.57017 6.00035 6.32409 6.26996C6.07709 6.53866 5.38316 7.18917 5.38316 8.51279C5.38316 9.83551 6.3458 11.1139 6.48061 11.2939C6.61541 11.4731 8.37602 14.1891 11.073 15.3535C11.7154 15.6303 12.2157 15.7959 12.6056 15.9189C13.2498 16.1243 13.8361 16.0954 14.2993 16.0257C14.815 15.9488 15.8898 15.3752 16.1142 14.7473C16.3377 14.1194 16.3377 13.5811 16.2707 13.4689C16.2038 13.3567 16.0246 13.2898 15.755 13.155H15.7559ZM10.8505 19.8527H10.8468C9.24496 19.853 7.67248 19.4224 6.29423 18.606L5.96853 18.4124L2.58301 19.3008L3.48684 16.0004L3.27423 15.662C2.37867 14.2364 1.90473 12.5866 1.90718 10.9031C1.90899 5.9723 5.92057 1.96071 10.8541 1.96071C13.2426 1.96071 15.4881 2.89259 17.1764 4.58263C18.0091 5.41189 18.6691 6.39804 19.1182 7.48402C19.5673 8.57 19.7966 9.73425 19.7929 10.9094C19.791 15.8402 15.7795 19.8527 10.8505 19.8527ZM18.4611 3.29881C17.4642 2.29539 16.2782 1.49978 14.9716 0.958088C13.665 0.416391 12.264 0.139378 10.8496 0.143103C4.91994 0.143103 0.0922828 4.96986 0.0904733 10.9022C0.0895686 12.7985 0.584458 14.6496 1.52629 16.2808L0 21.8567L5.70344 20.3603C7.28118 21.2199 9.04923 21.6703 10.8459 21.6703H10.8505C16.7801 21.6703 21.6077 16.8436 21.6096 10.9103C21.6139 9.49649 21.3379 8.0958 20.7975 6.7893C20.2571 5.48281 19.463 4.29644 18.4611 3.29881Z"
		fill="#959595" />
	<g id="ball">
		<rect width="23" height="22" fill="#F5F5F5" />
		<g id="Desktop">
			<rect width="1440" height="5750" transform="translate(-1114 -5679)" fill="#202020" />
			<g id="Icons">
				<g id="Group">
					<path id="Vector" fill-rule="evenodd" clip-rule="evenodd"
						d="M11.4664 0.143066C5.47257 0.143066 0.609619 5.00602 0.609619 10.9999C0.609619 16.9938 5.47257 21.8567 11.4664 21.8567C17.4485 21.8567 22.3233 16.9938 22.3233 10.9999C22.3233 5.00602 17.4485 0.143066 11.4664 0.143066ZM18.6374 5.14715C19.9741 6.77508 20.7138 8.81124 20.7336 10.9176C20.4278 10.8587 17.3662 10.2345 14.2811 10.6235C14.2096 10.4697 14.1508 10.305 14.0802 10.1404C13.8883 9.68748 13.6844 9.23978 13.4686 8.79776C16.8831 7.40809 18.4374 5.40681 18.6374 5.14715ZM11.4664 1.74535C13.8215 1.74535 15.9765 2.62747 17.6132 4.07595C17.4485 4.31118 16.0471 6.18398 12.7503 7.41985C11.2303 4.62965 9.54749 2.34429 9.28784 1.99144C10.002 1.82469 10.7331 1.7418 11.4664 1.74445V1.74535ZM7.52179 2.61571C7.76879 2.94594 9.41721 5.24215 10.9598 7.97355C6.62611 9.12799 2.79908 9.10446 2.38742 9.10446C2.98817 6.23103 4.93154 3.84072 7.52179 2.61571ZM2.18748 11.0116V10.7294C2.58827 10.7411 7.08571 10.7999 11.7143 9.41027C11.9849 9.92868 12.2318 10.4579 12.4671 10.9881C12.3495 11.0234 12.2201 11.0587 12.1025 11.094C7.32185 12.6365 4.77773 16.8517 4.56602 17.2055C3.03468 15.5059 2.1873 13.2993 2.18748 11.0116ZM11.4664 20.2788C9.32312 20.2788 7.34537 19.5487 5.77927 18.3246C5.94394 17.9826 7.82759 14.3555 13.0561 12.5307C13.0796 12.5189 13.0922 12.5189 13.1149 12.5072C14.4222 15.8864 14.9515 18.7245 15.0935 19.537C13.9744 20.0201 12.7503 20.2788 11.4664 20.2788ZM16.6361 18.6892C16.542 18.1238 16.0471 15.4159 14.8339 12.0829C17.7426 11.6242 20.2858 12.3778 20.6043 12.4837C20.2035 15.0621 18.7197 17.2878 16.6361 18.6892Z"
						fill="#959595" />
				</g>
			</g>
		</g>
	</g>
	<g id="in">
		<path
			d="M21.4432 0H1.20324C0.716492 0 0.323242 0.39325 0.323242 0.88V21.12C0.323242 21.6068 0.716492 22 1.20324 22H21.4432C21.93 22 22.3232 21.6068 22.3232 21.12V0.88C22.3232 0.39325 21.93 0 21.4432 0ZM6.84899 18.7468H3.58474V8.24725H6.84899V18.7468ZM5.21824 6.81175C4.84404 6.81175 4.47824 6.70079 4.1671 6.49289C3.85597 6.28499 3.61346 5.9895 3.47026 5.64379C3.32706 5.29807 3.28959 4.91765 3.3626 4.55064C3.4356 4.18363 3.6158 3.84651 3.8804 3.5819C4.145 3.3173 4.48212 3.13711 4.84913 3.0641C5.21614 2.9911 5.59656 3.02857 5.94228 3.17177C6.288 3.31497 6.58349 3.55747 6.79138 3.86861C6.99928 4.17975 7.11024 4.54555 7.11024 4.91975C7.10749 5.96475 6.26049 6.81175 5.21824 6.81175ZM19.07 18.7468H15.8085V13.64C15.8085 12.4218 15.7865 10.857 14.1117 10.857C12.415 10.857 12.1537 12.1825 12.1537 13.552V18.7468H8.89499V8.24725H12.0245V9.68275H12.0685C12.503 8.85775 13.5672 7.986 15.1567 7.986C18.4622 7.986 19.07 10.1612 19.07 12.9882V18.7468Z"
			fill="#959595" />

	</g>

	<path id="twitter"
		d="M27.0334 2.7187C26.0511 3.15395 24.996 3.44804 23.8867 3.58096C25.0312 2.89608 25.8876 1.81817 26.2958 0.54834C25.2205 1.18708 24.0435 1.63669 22.8162 1.87761C21.9908 0.996369 20.8976 0.412267 19.7063 0.215991C18.515 0.0197149 17.2922 0.222246 16.2277 0.792141C15.1633 1.36204 14.3168 2.26741 13.8197 3.3677C13.3225 4.46798 13.2025 5.70162 13.4783 6.87709C11.2994 6.76768 9.16776 6.20133 7.22184 5.2148C5.27592 4.22826 3.55919 2.84358 2.18305 1.15063C1.71251 1.96231 1.44195 2.90339 1.44195 3.90563C1.44142 4.80789 1.66361 5.69632 2.0888 6.49211C2.51398 7.28789 3.12902 7.96643 3.87934 8.46751C3.00917 8.43982 2.15819 8.20469 1.39725 7.7817V7.85228C1.39716 9.11772 1.83489 10.3442 2.63616 11.3237C3.43743 12.3031 4.55288 12.9752 5.79326 13.2258C4.98603 13.4443 4.13971 13.4765 3.31822 13.3199C3.66818 14.4088 4.34987 15.3609 5.26786 16.0431C6.18585 16.7253 7.29418 17.1033 8.43769 17.1243C6.49652 18.6481 4.09918 19.4747 1.63134 19.4711C1.19419 19.4712 0.757404 19.4457 0.323242 19.3946C2.82825 21.0052 5.74425 21.86 8.72236 21.8567C18.8037 21.8567 24.3148 13.507 24.3148 6.26539C24.3148 6.03012 24.309 5.7925 24.2984 5.55723C25.3704 4.78198 26.2957 3.82199 27.031 2.72223L27.0334 2.7187Z"
		fill="#959595" />


	<path id="be"
		d="M18.9677 1.19067H26.2041V2.92648H18.9677V1.19067ZM11.7168 8.05858C13.3164 7.30185 14.1543 6.15063 14.1543 4.37179C14.1543 0.853556 11.5064 0 8.44865 0H0.0333862V17.6593H8.68442C11.9272 17.6593 14.9705 16.1172 14.9705 12.5308C14.9705 10.3144 13.9113 8.67543 11.7168 8.05858ZM3.95809 3.01255H7.63977C9.05803 3.01255 10.3312 3.40347 10.3312 5.03168C10.3312 6.53078 9.34095 7.13329 7.9372 7.13329H3.95809V3.01255ZM8.14758 14.6611H3.95446V9.79797H8.23101C9.95759 9.79797 11.0494 10.5117 11.0494 12.3192C11.0494 14.098 9.74721 14.6611 8.14758 14.6611ZM29.0334 11.4513C29.0334 7.66766 26.7954 4.51524 22.7473 4.51524C18.8117 4.51524 16.1348 7.44531 16.1348 11.2863C16.1348 15.2672 18.6703 18 22.7473 18C25.8341 18 27.8328 16.6264 28.794 13.6964H25.6637C25.3227 14.7902 23.9371 15.364 22.8598 15.364C20.7777 15.364 19.6895 14.159 19.6895 12.1112H29.008C29.0189 11.8996 29.0334 11.6772 29.0334 11.4513ZM19.6895 9.8948C19.802 8.21279 20.9373 7.16198 22.6349 7.16198C24.4195 7.16198 25.3118 8.19845 25.4678 9.8948H19.6895Z"
		fill="#959595" />


	<g id="logo">
		<path
			d="M11.3938 35.4538L17.7277 17.2308H22.6108L14.0123 42H8.81077L0.212308 17.2308H5.09538L11.3938 35.4538Z"
			fill="#DEDEDE" />
		<path
			d="M17.6061 7.39234L11.2722 25.6154L6.38917 25.6154L14.9876 0.84619L20.1892 0.846191L28.7876 25.6154L23.9046 25.6154L17.6061 7.39234Z"
			fill="#DEDEDE" />
	</g>
	<g id="email">
		<path
			d="M20.4286 1.5H2.14286C1.51167 1.5 1 2.01167 1 2.64286V16.3571C1 16.9883 1.51167 17.5 2.14286 17.5H20.4286C21.0598 17.5 21.5714 16.9883 21.5714 16.3571V2.64286C21.5714 2.01167 21.0598 1.5 20.4286 1.5Z"
			stroke="white" stroke-width="2" stroke-linecap="round" />
		<path d="M1 3.21436L11.2857 9.50007L21.5714 3.21436" stroke="white" stroke-width="2"
			stroke-linecap="round" />
	</g>


	<path id="arrow"
		d="M7.29289 32.7071C7.68342 33.0976 8.31658 33.0976 8.70711 32.7071L15.0711 26.3431C15.4616 25.9526 15.4616 25.3195 15.0711 24.9289C14.6805 24.5384 14.0474 24.5384 13.6569 24.9289L8 30.5858L2.34315 24.9289C1.95262 24.5384 1.31946 24.5384 0.928933 24.9289C0.538409 25.3195 0.538409 25.9526 0.928933 26.3431L7.29289 32.7071ZM7 4.37114e-08L7 32L9 32L9 -4.37114e-08L7 4.37114e-08Z"
		fill="#DEDEDE" />

	
	<path id="ts"
	 d="M5 25V45H45V5H5V25ZM37.235 23.4067C38.2517 23.66 39.025 24.1117 39.7367 24.8483C40.105 25.2417 40.6517 25.9583 40.695 26.1317C40.7083 26.1817 38.9683 27.3483 37.915 28.0033C37.8767 28.0283 37.7233 27.8633 37.5533 27.61C37.0367 26.86 36.4983 26.5367 35.6733 26.48C34.46 26.3967 33.68 27.0317 33.6867 28.0917C33.6756 28.3523 33.7343 28.6112 33.8567 28.8417C34.1233 29.3933 34.62 29.725 36.1733 30.3967C39.0383 31.63 40.2633 32.4417 41.025 33.5967C41.875 34.885 42.0667 36.9433 41.4883 38.4733C40.855 40.1367 39.28 41.2667 37.0633 41.64C36.3783 41.7617 34.7533 41.7433 34.0167 41.61C32.41 41.3233 30.8867 40.53 29.9467 39.4883C29.5783 39.0833 28.86 38.0217 28.905 37.9467C28.9233 37.92 29.0883 37.8183 29.2717 37.7117C29.4517 37.61 30.1233 37.2217 30.7583 36.8533L31.9083 36.1867L32.15 36.5433C32.4867 37.0567 33.2217 37.7617 33.6667 37.9967C34.9433 38.67 36.695 38.575 37.5583 37.8C37.7319 37.6538 37.8694 37.4693 37.9599 37.2612C38.0504 37.053 38.0915 36.8267 38.08 36.6C38.08 36.1367 38.0217 35.9333 37.78 35.5833C37.47 35.14 36.835 34.7667 35.0317 33.9833C32.9683 33.095 32.08 32.5433 31.2667 31.6667C30.759 31.0881 30.3841 30.4055 30.1683 29.6667C30.0167 29.1017 29.9783 27.685 30.0983 27.115C30.5233 25.12 32.0283 23.7317 34.2 23.3183C34.905 23.185 36.5433 23.235 37.235 23.4067ZM27.845 25.0767L27.8583 26.715H22.65V41.5083H18.9667V26.715H13.7633V25.1083C13.7633 24.2183 13.7817 23.475 13.8067 23.4583C13.8267 23.4317 16.995 23.4183 20.835 23.425L27.8267 23.445L27.845 25.0767Z" fill="#7572D5"/>

</svg>